<?xml version="1.0" encoding="utf-8"?>
<!-- Generator: Adobe Illustrator 27.8.1, SVG Export Plug-In . SVG Version: 6.00 Build 0)  -->
<svg version="1.1" id="Layer_1" xmlns="http://www.w3.org/2000/svg" xmlns:xlink="http://www.w3.org/1999/xlink" x="0px" y="0px"
	 viewBox="0 0 581 142" style="enable-background:new 0 0 581 142;" xml:space="preserve">
<style type="text/css">
	.st0{fill:#FFFFFF;}
</style>
<g>
	<g>
		<path class="st0" d="M91.38,140.52c-7.13,0-13.96-1.21-20.48-3.63c-6.52-2.42-12.55-6.14-18.1-11.17l9.78-11.63
			c4.49,3.88,9.03,6.85,13.61,8.92c4.58,2.07,9.78,3.11,15.59,3.11c5.02,0,9.01-1.06,11.96-3.17c2.95-2.11,4.43-4.93,4.43-8.46
			v-0.26c0-1.67-0.29-3.15-0.86-4.43c-0.58-1.28-1.64-2.49-3.18-3.63c-1.55-1.14-3.67-2.2-6.36-3.17c-2.69-0.97-6.2-1.94-10.53-2.91
			c-4.95-1.14-9.34-2.45-13.18-3.9c-3.84-1.45-7.07-3.21-9.67-5.28c-2.61-2.07-4.59-4.6-5.96-7.6c-1.37-3-2.05-6.61-2.05-10.84V72.2
			c0-3.96,0.78-7.6,2.36-10.9c1.57-3.3,3.74-6.12,6.49-8.46c2.75-2.33,6.06-4.16,9.93-5.48c3.87-1.32,8.09-1.98,12.67-1.98
			c6.78,0,12.88,0.99,18.3,2.97c5.42,1.98,10.51,4.87,15.26,8.65l-8.72,12.29c-4.23-3.08-8.41-5.44-12.55-7.07
			c-4.14-1.63-8.32-2.45-12.55-2.45c-4.76,0-8.46,1.06-11.1,3.17c-2.64,2.12-3.96,4.71-3.96,7.8v0.26c0,1.76,0.31,3.33,0.93,4.69
			c0.62,1.37,1.74,2.6,3.38,3.7c1.63,1.1,3.89,2.14,6.75,3.11c2.87,0.97,6.52,1.98,10.93,3.04c4.86,1.23,9.16,2.6,12.92,4.1
			c3.75,1.5,6.87,3.33,9.34,5.49c2.47,2.16,4.35,4.67,5.63,7.53c1.28,2.86,1.92,6.19,1.92,9.98v0.26c0,4.32-0.81,8.19-2.43,11.63
			c-1.62,3.44-3.86,6.34-6.75,8.72s-6.35,4.19-10.39,5.42C100.67,139.9,96.23,140.52,91.38,140.52z"/>
		<g>
			<path class="st0" d="M78.7,76.59c1.37,0.92,3.37,1.83,5.94,2.7c2.74,0.93,6.32,1.92,10.68,2.97c4.98,1.27,9.47,2.69,13.34,4.23
				c1.93,0.77,3.7,1.64,5.34,2.58c-1.74-1.29-3.37-2.7-4.85-4.27c-3.25-3.47-5.78-7.56-7.59-12.28c-0.84-2.19-1.46-4.46-1.9-6.78
				c-0.27-0.11-0.54-0.25-0.8-0.35c-3.73-1.47-7.53-2.21-11.31-2.21c-3.94,0-6.96,0.82-8.98,2.43c-0.2,0.16-0.34,0.33-0.52,0.5
				c-0.44,2.24-1.05,4.41-1.88,6.48c-0.03,0.09-0.08,0.16-0.11,0.25c0.1,0.53,0.25,1.03,0.46,1.47
				C76.87,75.08,77.6,75.85,78.7,76.59z"/>
			<path class="st0" d="M181.35,90.93c3.62-4.76,6.37-9.97,8.24-15.61c1.86-5.64,2.8-11.58,2.8-17.79v-0.31
				c0-7.66-1.4-14.89-4.2-21.67c-2.8-6.78-6.68-12.71-11.65-17.79c-4.97-5.07-10.93-9.09-17.87-12.04c-6.94-2.95-14.61-4.43-23-4.43
				c-8.39,0-16.06,1.5-22.99,4.51s-12.95,7.07-18.02,12.2c-2.2,2.22-4.14,4.63-5.91,7.16c-1.72-2.3-3.62-4.45-5.73-6.46
				c-5.13-4.87-11.24-8.67-18.33-11.42c-7.1-2.74-14.89-4.12-23.38-4.12H0.74v108.76h40.55c8.49,0,16.29-1.4,23.38-4.2
				c4.62-1.82,8.78-4.13,12.57-6.83c-1.53-0.49-3.01-0.99-4.4-1.51c-4.15-1.57-7.72-3.52-10.58-5.8c-1.08-0.86-2.04-1.81-2.94-2.82
				c-0.86,0.41-1.73,0.82-2.65,1.18c-4.66,1.82-9.84,2.73-15.54,2.73H19.7V20.39h21.44c5.69,0,10.88,0.94,15.54,2.81
				c4.66,1.87,8.62,4.45,11.89,7.72c3.26,3.28,5.8,7.2,7.61,11.78c0.1,0.24,0.17,0.49,0.26,0.74c3.55-0.96,7.36-1.47,11.39-1.47
				c4.74,0,9.19,0.52,13.35,1.45c0.13-0.37,0.24-0.75,0.39-1.12c1.81-4.66,4.31-8.73,7.5-12.2c3.2-3.47,7.04-6.21,11.53-8.23
				c4.49-2.02,9.41-3.03,14.77-3.03c5.36,0,10.31,1.04,14.85,3.11c4.54,2.07,8.43,4.84,11.68,8.31c3.25,3.47,5.77,7.56,7.58,12.27
				c1.81,4.71,2.71,9.71,2.71,14.99v0.31c0,7.87-1.85,14.66-5.54,20.35L147.95,61.1l-12.28,13.98l18.65,15.85
				c-2.58,1.66-5.43,2.95-8.52,3.89c-3.1,0.93-6.45,1.4-10.07,1.4c-5.37,0-10.33-1.03-14.87-3.11c-1.21-0.55-2.37-1.16-3.49-1.82
				c0.55,0.42,1.11,0.83,1.62,1.28c2.84,2.48,5.02,5.41,6.5,8.71c1.47,3.29,2.22,7.11,2.22,11.37v0.26c0,0.14-0.02,0.27-0.02,0.41
				c2.5,0.29,5.05,0.46,7.69,0.46c6.42,0,12.38-0.88,17.87-2.64c5.49-1.76,10.56-4.3,15.23-7.61l13.05,11.65l12.28-13.67
				L181.35,90.93z"/>
		</g>
	</g>
	<g>
		<g>
			<path class="st0" d="M218.44,51.31c0,1.23,0.22,2.28,0.67,3.14c0.45,0.86,1.04,1.55,1.78,2.08c0.74,0.53,1.59,0.93,2.57,1.18
				c0.98,0.26,2.01,0.39,3.11,0.39c0.72,0,1.49-0.06,2.32-0.18s1.59-0.35,2.31-0.7c0.72-0.34,1.32-0.81,1.8-1.41
				c0.48-0.6,0.72-1.36,0.72-2.29c0-0.99-0.32-1.8-0.95-2.42c-0.64-0.62-1.47-1.14-2.5-1.57c-1.03-0.43-2.2-0.79-3.5-1.08
				c-1.3-0.29-2.62-0.63-3.96-1c-1.37-0.34-2.71-0.76-4.01-1.26c-1.3-0.5-2.47-1.14-3.5-1.93c-1.03-0.79-1.86-1.77-2.5-2.93
				c-0.64-1.16-0.95-2.61-0.95-4.32c0-1.89,0.4-3.53,1.21-4.91c0.81-1.39,1.86-2.55,3.16-3.47c1.3-0.93,2.78-1.61,4.42-2.06
				c1.65-0.44,3.29-0.67,4.94-0.67c1.92,0,3.76,0.21,5.53,0.64c1.77,0.43,3.33,1.12,4.71,2.08c1.37,0.96,2.46,2.19,3.27,3.68
				c0.81,1.49,1.21,3.3,1.21,5.43h-7.82c-0.07-1.1-0.3-2.01-0.69-2.73c-0.4-0.72-0.92-1.29-1.57-1.7c-0.65-0.41-1.41-0.7-2.26-0.87
				c-0.86-0.17-1.77-0.26-2.73-0.26c-0.65,0-1.3,0.07-1.96,0.2c-0.65,0.14-1.24,0.38-1.77,0.72c-0.53,0.34-0.97,0.78-1.31,1.31
				c-0.34,0.53-0.51,1.18-0.51,1.93c0,0.72,0.14,1.31,0.41,1.75c0.27,0.45,0.81,0.85,1.62,1.21c0.81,0.36,1.92,0.74,3.34,1.13
				c1.42,0.4,3.28,0.88,5.58,1.47c0.45,0.1,1.03,0.25,1.75,0.44c0.72,0.19,1.48,0.44,2.29,0.77c0.81,0.33,1.61,0.75,2.42,1.26
				c0.81,0.52,1.54,1.15,2.21,1.9c0.67,0.76,1.21,1.66,1.62,2.7c0.41,1.04,0.62,2.25,0.62,3.63c0,1.68-0.33,3.24-0.98,4.68
				c-0.65,1.44-1.62,2.68-2.91,3.73s-2.88,1.87-4.78,2.47c-1.9,0.6-4.11,0.9-6.61,0.9c-2.03,0-3.99-0.26-5.89-0.77
				c-1.9-0.52-3.57-1.3-5.01-2.37c-1.44-1.06-2.6-2.42-3.47-4.07c-0.87-1.65-1.29-3.6-1.26-5.86H218.44z"/>
			<path class="st0" d="M248.02,37.68c0.82-2.37,2.01-4.42,3.55-6.17c1.54-1.75,3.43-3.12,5.66-4.12c2.23-0.99,4.77-1.49,7.61-1.49
				c2.85,0,5.38,0.5,7.61,1.49c2.23,0.99,4.12,2.37,5.66,4.12c1.54,1.75,2.73,3.81,3.55,6.17c0.82,2.37,1.23,4.91,1.23,7.61
				c0,2.64-0.41,5.13-1.23,7.46c-0.82,2.33-2.01,4.36-3.55,6.07c-1.54,1.72-3.43,3.07-5.66,4.07c-2.23,0.99-4.77,1.49-7.61,1.49
				c-2.85,0-5.38-0.5-7.61-1.49c-2.23-0.99-4.11-2.35-5.66-4.07c-1.54-1.71-2.73-3.74-3.55-6.07c-0.82-2.33-1.23-4.82-1.23-7.46
				C246.79,42.59,247.2,40.05,248.02,37.68z M255.4,49.79c0.36,1.46,0.93,2.77,1.72,3.94c0.79,1.17,1.82,2.1,3.09,2.8
				c1.27,0.7,2.81,1.05,4.63,1.05c1.82,0,3.36-0.35,4.63-1.05c1.27-0.7,2.3-1.64,3.08-2.8c0.79-1.17,1.36-2.48,1.72-3.94
				c0.36-1.45,0.54-2.96,0.54-4.5c0-1.61-0.18-3.17-0.54-4.68c-0.36-1.51-0.93-2.85-1.72-4.04c-0.79-1.18-1.82-2.13-3.08-2.83
				c-1.27-0.7-2.81-1.06-4.63-1.06c-1.82,0-3.36,0.35-4.63,1.06c-1.27,0.7-2.3,1.65-3.09,2.83c-0.79,1.18-1.36,2.53-1.72,4.04
				c-0.36,1.51-0.54,3.07-0.54,4.68C254.86,46.84,255.04,48.34,255.4,49.79z"/>
			<path class="st0" d="M290.46,26.78h8.08v29.94h17.9v6.79h-25.98V26.78z"/>
			<path class="st0" d="M354.19,49.62c0,4.97-1.39,8.67-4.17,11.11c-2.78,2.43-6.62,3.65-11.52,3.65c-4.97,0-8.82-1.21-11.55-3.63
				c-2.73-2.42-4.09-6.13-4.09-11.14V26.78h8.08v22.84c0,0.99,0.09,1.97,0.26,2.93c0.17,0.96,0.53,1.82,1.08,2.57
				c0.55,0.76,1.31,1.36,2.29,1.8c0.98,0.45,2.29,0.67,3.94,0.67c2.88,0,4.87-0.64,5.97-1.93c1.1-1.29,1.65-3.3,1.65-6.04V26.78
				h8.08V49.62z"/>
			<path class="st0" d="M371.32,33.57h-11.01v-6.79h30.09v6.79H379.4V63.5h-8.08V33.57z"/>
			<path class="st0" d="M396.68,26.78h8.08V63.5h-8.08V26.78z"/>
			<path class="st0" d="M413.55,37.68c0.82-2.37,2.01-4.42,3.55-6.17c1.54-1.75,3.43-3.12,5.66-4.12c2.23-0.99,4.77-1.49,7.61-1.49
				c2.85,0,5.38,0.5,7.62,1.49c2.23,0.99,4.11,2.37,5.66,4.12c1.54,1.75,2.73,3.81,3.55,6.17c0.82,2.37,1.23,4.91,1.23,7.61
				c0,2.64-0.41,5.13-1.23,7.46c-0.82,2.33-2.01,4.36-3.55,6.07c-1.55,1.72-3.43,3.07-5.66,4.07c-2.23,0.99-4.77,1.49-7.62,1.49
				c-2.85,0-5.38-0.5-7.61-1.49c-2.23-0.99-4.12-2.35-5.66-4.07c-1.55-1.71-2.73-3.74-3.55-6.07c-0.82-2.33-1.23-4.82-1.23-7.46
				C412.32,42.59,412.73,40.05,413.55,37.68z M420.93,49.79c0.36,1.46,0.93,2.77,1.72,3.94c0.79,1.17,1.82,2.1,3.08,2.8
				c1.27,0.7,2.81,1.05,4.63,1.05c1.82,0,3.36-0.35,4.63-1.05c1.27-0.7,2.3-1.64,3.08-2.8c0.79-1.17,1.36-2.48,1.72-3.94
				c0.36-1.45,0.54-2.96,0.54-4.5c0-1.61-0.18-3.17-0.54-4.68c-0.36-1.51-0.93-2.85-1.72-4.04c-0.79-1.18-1.82-2.13-3.08-2.83
				c-1.27-0.7-2.81-1.06-4.63-1.06c-1.82,0-3.36,0.35-4.63,1.06c-1.27,0.7-2.3,1.65-3.08,2.83c-0.79,1.18-1.36,2.53-1.72,4.04
				c-0.36,1.51-0.54,3.07-0.54,4.68C420.39,46.84,420.57,48.34,420.93,49.79z"/>
			<path class="st0" d="M455.99,26.78h8.03l15.33,24.64h0.1V26.78h7.56V63.5h-8.08l-15.28-24.59h-0.1V63.5h-7.56V26.78z"/>
			<path class="st0" d="M501.67,51.31c0,1.23,0.22,2.28,0.67,3.14c0.45,0.86,1.04,1.55,1.78,2.08c0.74,0.53,1.59,0.93,2.57,1.18
				c0.98,0.26,2.01,0.39,3.11,0.39c0.72,0,1.49-0.06,2.31-0.18c0.82-0.12,1.59-0.35,2.32-0.7c0.72-0.34,1.32-0.81,1.8-1.41
				c0.48-0.6,0.72-1.36,0.72-2.29c0-0.99-0.32-1.8-0.95-2.42c-0.64-0.62-1.47-1.14-2.5-1.57c-1.03-0.43-2.19-0.79-3.5-1.08
				c-1.31-0.29-2.62-0.63-3.96-1c-1.37-0.34-2.71-0.76-4.01-1.26c-1.3-0.5-2.47-1.14-3.5-1.93c-1.03-0.79-1.86-1.77-2.5-2.93
				c-0.64-1.16-0.95-2.61-0.95-4.32c0-1.89,0.4-3.53,1.21-4.91c0.81-1.39,1.86-2.55,3.16-3.47c1.3-0.93,2.78-1.61,4.42-2.06
				c1.65-0.44,3.29-0.67,4.94-0.67c1.92,0,3.77,0.21,5.53,0.64c1.77,0.43,3.33,1.12,4.71,2.08c1.37,0.96,2.46,2.19,3.27,3.68
				c0.81,1.49,1.21,3.3,1.21,5.43h-7.82c-0.07-1.1-0.3-2.01-0.7-2.73c-0.4-0.72-0.92-1.29-1.57-1.7s-1.41-0.7-2.26-0.87
				c-0.86-0.17-1.77-0.26-2.73-0.26c-0.65,0-1.3,0.07-1.95,0.2c-0.65,0.14-1.24,0.38-1.78,0.72c-0.53,0.34-0.97,0.78-1.31,1.31
				c-0.34,0.53-0.52,1.18-0.52,1.93c0,0.72,0.14,1.31,0.41,1.75c0.27,0.45,0.81,0.85,1.62,1.21c0.8,0.36,1.92,0.74,3.34,1.13
				c1.42,0.4,3.28,0.88,5.58,1.47c0.45,0.1,1.03,0.25,1.75,0.44c0.72,0.19,1.48,0.44,2.29,0.77c0.81,0.33,1.61,0.75,2.42,1.26
				c0.81,0.52,1.55,1.15,2.21,1.9c0.67,0.76,1.21,1.66,1.62,2.7c0.41,1.04,0.62,2.25,0.62,3.63c0,1.68-0.32,3.24-0.98,4.68
				c-0.65,1.44-1.62,2.68-2.91,3.73c-1.29,1.05-2.88,1.87-4.78,2.47c-1.91,0.6-4.11,0.9-6.61,0.9c-2.03,0-3.99-0.26-5.89-0.77
				c-1.9-0.52-3.57-1.3-5.02-2.37c-1.44-1.06-2.6-2.42-3.47-4.07c-0.87-1.65-1.3-3.6-1.26-5.86H501.67z"/>
			<path class="st0" d="M568.28,59.85c-1.47,1.44-3.05,2.53-4.71,3.27c-1.66,0.74-3.54,1.1-5.63,1.1c-1.65,0-3.2-0.25-4.66-0.75
				c-1.46-0.5-2.72-1.22-3.78-2.16c-1.07-0.94-1.91-2.09-2.52-3.44c-0.62-1.35-0.93-2.91-0.93-4.66c0-1.27,0.22-2.45,0.67-3.55
				c0.45-1.1,1.06-2.08,1.83-2.96s1.65-1.65,2.62-2.34c0.98-0.69,2.02-1.29,3.11-1.8c-0.99-1.2-1.83-2.4-2.5-3.6
				c-0.67-1.2-1-2.61-1-4.22c0-1.27,0.27-2.42,0.8-3.44c0.53-1.03,1.24-1.91,2.14-2.65c0.89-0.74,1.91-1.3,3.06-1.7
				c1.15-0.39,2.34-0.59,3.57-0.59c1.37,0,2.67,0.19,3.91,0.56c1.23,0.38,2.31,0.94,3.22,1.67c0.91,0.74,1.63,1.66,2.16,2.75
				c0.53,1.1,0.8,2.37,0.8,3.8c0,2.16-0.63,3.98-1.88,5.45c-1.25,1.47-2.8,2.71-4.66,3.7l4.73,5.81c0.38-0.69,0.67-1.4,0.87-2.14
				c0.2-0.74,0.36-1.48,0.46-2.24h6.33c-0.17,1.65-0.55,3.24-1.13,4.79c-0.58,1.54-1.39,2.97-2.42,4.27l7.46,8.69h-8.95
				L568.28,59.85z M558.15,47.3c-0.65,0.27-1.28,0.61-1.9,1c-0.62,0.4-1.17,0.84-1.65,1.34c-0.48,0.5-0.87,1.05-1.16,1.67
				c-0.29,0.62-0.44,1.3-0.44,2.06c0,0.69,0.15,1.32,0.44,1.9s0.68,1.09,1.16,1.52c0.48,0.43,1.04,0.77,1.67,1.03
				c0.64,0.26,1.29,0.39,1.98,0.39c1.3,0,2.44-0.3,3.42-0.9c0.98-0.6,1.89-1.38,2.75-2.34L558.15,47.3z M563.06,32.28
				c-0.67-0.68-1.45-1.03-2.34-1.03s-1.66,0.3-2.31,0.9c-0.65,0.6-0.98,1.38-0.98,2.34c0,1.17,0.31,2.16,0.93,2.98
				c0.62,0.82,1.27,1.66,1.95,2.52c1.03-0.65,1.91-1.35,2.65-2.11c0.74-0.76,1.1-1.8,1.1-3.14
				C564.06,33.79,563.73,32.97,563.06,32.28z"/>
		</g>
		<g>
			<path class="st0" d="M218.44,102.82c0,1.23,0.22,2.28,0.67,3.14c0.45,0.86,1.04,1.55,1.78,2.08c0.74,0.53,1.59,0.93,2.57,1.18
				c0.98,0.26,2.01,0.39,3.11,0.39c0.72,0,1.49-0.06,2.32-0.18s1.59-0.35,2.31-0.7c0.72-0.34,1.32-0.81,1.8-1.41
				c0.48-0.6,0.72-1.36,0.72-2.29c0-0.99-0.32-1.8-0.95-2.42c-0.64-0.62-1.47-1.14-2.5-1.57c-1.03-0.43-2.2-0.79-3.5-1.08
				c-1.3-0.29-2.62-0.63-3.96-1c-1.37-0.34-2.71-0.76-4.01-1.26c-1.3-0.5-2.47-1.14-3.5-1.93c-1.03-0.79-1.86-1.77-2.5-2.93
				c-0.64-1.16-0.95-2.61-0.95-4.32c0-1.89,0.4-3.53,1.21-4.91c0.81-1.39,1.86-2.55,3.16-3.47c1.3-0.93,2.78-1.61,4.42-2.06
				c1.65-0.44,3.29-0.67,4.94-0.67c1.92,0,3.76,0.21,5.53,0.64c1.77,0.43,3.33,1.12,4.71,2.08c1.37,0.96,2.46,2.19,3.27,3.68
				c0.81,1.49,1.21,3.3,1.21,5.43h-7.82c-0.07-1.1-0.3-2.01-0.69-2.73c-0.4-0.72-0.92-1.29-1.57-1.7c-0.65-0.41-1.41-0.7-2.26-0.87
				c-0.86-0.17-1.77-0.26-2.73-0.26c-0.65,0-1.3,0.07-1.96,0.2c-0.65,0.14-1.24,0.38-1.77,0.72c-0.53,0.34-0.97,0.78-1.31,1.31
				c-0.34,0.53-0.51,1.18-0.51,1.93c0,0.72,0.14,1.31,0.41,1.75c0.27,0.45,0.81,0.85,1.62,1.21c0.81,0.36,1.92,0.74,3.34,1.13
				c1.42,0.4,3.28,0.88,5.58,1.47c0.45,0.1,1.03,0.25,1.75,0.44c0.72,0.19,1.48,0.44,2.29,0.77c0.81,0.33,1.61,0.75,2.42,1.26
				c0.81,0.52,1.54,1.15,2.21,1.9s1.21,1.66,1.62,2.7c0.41,1.04,0.62,2.25,0.62,3.63c0,1.68-0.33,3.24-0.98,4.68
				c-0.65,1.44-1.62,2.68-2.91,3.73s-2.88,1.87-4.78,2.47c-1.9,0.6-4.11,0.9-6.61,0.9c-2.03,0-3.99-0.26-5.89-0.77
				c-1.9-0.52-3.57-1.3-5.01-2.37c-1.44-1.06-2.6-2.42-3.47-4.07c-0.87-1.65-1.29-3.6-1.26-5.86H218.44z"/>
			<path class="st0" d="M255.47,85.07h-11.01v-6.79h30.09v6.79h-11.01v29.94h-8.08V85.07z"/>
			<path class="st0" d="M287.01,78.28h8.28l13.73,36.73h-8.38l-2.78-8.18h-13.73l-2.88,8.18h-8.18L287.01,78.28z M286.23,100.81
				h9.52l-4.63-13.48h-0.1L286.23,100.81z"/>
			<path class="st0" d="M314.27,78.28h25.82v6.79h-17.75v8.49h15.38v6.28h-15.38v15.17h-8.08V78.28z"/>
			<path class="st0" d="M346.83,78.28h25.82v6.79H354.9v8.49h15.38v6.28H354.9v15.17h-8.08V78.28z"/>
			<path class="st0" d="M379.39,78.28h8.08v36.73h-8.08V78.28z"/>
			<path class="st0" d="M396.62,78.28h8.03l15.33,24.64h0.1V78.28h7.56v36.73h-8.08l-15.28-24.59h-0.1v24.59h-7.56V78.28z"/>
			<path class="st0" d="M472.12,89.07h-8.16c-1.03-1.41-2.36-2.55-3.98-3.42c-1.63-0.87-3.3-1.36-5.03-1.46c-0.1,0-0.21,0-0.32,0
				s-0.22,0-0.32,0c-1.56,0-3.08,0.28-4.55,0.84c-1.48,0.55-2.8,1.35-3.96,2.4c-1.06,0.96-1.96,2.12-2.69,3.47
				c-0.73,1.36-1.21,2.77-1.44,4.22c-0.03,0.27-0.06,0.52-0.07,0.77c-0.02,0.25-0.03,0.51-0.03,0.77c0,0.23,0.01,0.47,0.03,0.72
				c0.02,0.25,0.04,0.49,0.07,0.72c0.17,1.32,0.55,2.61,1.17,3.85c0.61,1.24,1.37,2.33,2.27,3.25c1.26,1.33,2.72,2.34,4.38,3.05
				c1.66,0.71,3.37,1.07,5.13,1.07c0.1,0,0.19,0,0.28,0c0.08,0,0.16,0,0.22,0c2.09-0.1,4.08-0.76,5.97-1.97
				c1.89-1.21,3.32-2.76,4.28-4.65h-15.38v-6.47h23.99v0.8c0,5.41-1.95,9.91-5.85,13.49c-3.9,3.58-8.47,5.37-13.71,5.37
				c-5.31,0-9.91-1.81-13.81-5.45c-3.9-3.64-5.85-8.16-5.85-13.56c0-5.44,1.94-10.02,5.82-13.74c3.88-3.72,8.46-5.58,13.74-5.58
				c0.07,0,0.14,0,0.22,0c0.08,0,0.16,0,0.23,0c3.65,0.1,7.12,1.19,10.4,3.25c3.29,2.07,5.61,4.83,6.97,8.3V89.07z"/>
		</g>
	</g>
</g>
</svg>
